Comme-Bold.ufo
<glyph name="quotedbl" format="1">
  <advance width="818"/>
  <unicode hex="0022"/>
  <outline>
    <contour>
      <point x="551" y="936" type="line"/>
      <point x="688" y="936" type="line"/>
      <point x="733" y="1549" type="line"/>
      <point x="465" y="1549" type="line"/>
    </contour>
    <contour>
      <point x="179" y="936" type="line"/>
      <point x="316" y="936" type="line"/>
      <point x="361" y="1549" type="line"/>
      <point x="94" y="1549" type="line"/>
    </contour>
  </outline>
</glyph>
<glyph name="numbersign" format="1">
  <advance width="1125"/>
  <unicode hex="0023"/>
  <outline>
    <contour>
      <point x="418" y="562" type="line"/>
      <point x="489" y="958" type="line"/>
      <point x="729" y="958" type="line"/>
      <point x="657" y="562" type="line"/>
    </contour>
    <contour>
      <point x="157" y="-5" type="line"/>
      <point x="312" y="-5" type="line"/>
      <point x="394" y="440" type="line"/>
      <point x="635" y="440" type="line"/>
      <point x="553" y="-5" type="line"/>
      <point x="708" y="-5" type="line"/>
      <point x="792" y="440" type="line"/>
      <point x="972" y="440" type="line"/>
      <point x="988" y="562" type="line"/>
      <point x="815" y="562" type="line"/>
      <point x="886" y="958" type="line"/>
      <point x="1055" y="958" type="line"/>
      <point x="1074" y="1082" type="line"/>
      <point x="908" y="1082" type="line"/>
      <point x="985" y="1490" type="line"/>
      <point x="828" y="1490" type="line"/>
      <point x="752" y="1082" type="line"/>
      <point x="511" y="1082" type="line"/>
      <point x="588" y="1490" type="line"/>
      <point x="432" y="1490" type="line"/>
      <point x="356" y="1082" type="line"/>
      <point x="158" y="1082" type="line"/>
      <point x="141" y="958" type="line"/>
      <point x="334" y="958" type="line"/>
      <point x="262" y="562" type="line"/>
      <point x="81" y="562" type="line"/>
      <point x="64" y="440" type="line"/>
      <point x="240" y="440" type="line"/>
    </contour>
  </outline>
</glyph>
<glyph name="dollar" format="1">
  <advance width="1226"/>
  <unicode hex="0024"/>
  <outline>
    <component base="S"/>
    <contour>
      <point x="540" y="53" type="line"/>
      <point x="540" y="-285" type="line"/>
      <point x="697" y="-285" type="line"/>
      <point x="693" y="53" type="line"/>
    </contour>
    <contour>
      <point x="537" y="1770" type="line"/>
      <point x="534" y="1433" type="line"/>
      <point x="690" y="1433" type="line"/>
      <point x="690" y="1770" type="line"/>
    </contour>
  </outline>
</glyph>
<glyph name="percent" format="1">
  <advance width="2046"/>
  <unicode hex="0025"/>
  <outline>
    <contour>
      <point x="1559" y="-28" type="curve" smooth="yes"/>
      <point x="1801" y="-28"/>
      <point x="1949" y="151"/>
      <point x="1949" y="380" type="curve" smooth="yes"/>
      <point x="1949" y="611"/>
      <point x="1804" y="781"/>
      <point x="1559" y="781" type="curve" smooth="yes"/>
      <point x="1319" y="781"/>
      <point x="1172" y="607"/>
      <point x="1172" y="380" type="curve" smooth="yes"/>
      <point x="1172" y="151"/>
      <point x="1315" y="-28"/>
    </contour>
    <contour>
      <point x="1563" y="140" type="curve" smooth="yes"/>
      <point x="1436" y="140"/>
      <point x="1369" y="245"/>
      <point x="1369" y="382" type="curve" smooth="yes"/>
      <point x="1369" y="516"/>
      <point x="1436" y="620"/>
      <point x="1563" y="620" type="curve" smooth="yes"/>
      <point x="1687" y="620"/>
      <point x="1753" y="521"/>
      <point x="1753" y="382" type="curve" smooth="yes"/>
      <point x="1753" y="248"/>
      <point x="1688" y="140"/>
    </contour>
    <contour>
      <point x="489" y="0" type="line"/>
      <point x="705" y="0" type="line"/>
      <point x="1545" y="1508" type="line"/>
      <point x="1337" y="1508" type="line"/>
    </contour>
    <contour>
      <point x="478" y="718" type="curve" smooth="yes"/>
      <point x="720" y="718"/>
      <point x="868" y="896"/>
      <point x="868" y="1124" type="curve" smooth="yes"/>
      <point x="868" y="1355"/>
      <point x="723" y="1528"/>
      <point x="478" y="1528" type="curve" smooth="yes"/>
      <point x="238" y="1528"/>
      <point x="101" y="1352"/>
      <point x="101" y="1124" type="curve" smooth="yes"/>
      <point x="101" y="896"/>
      <point x="234" y="718"/>
    </contour>
    <contour>
      <point x="482" y="885" type="curve" smooth="yes"/>
      <point x="355" y="885"/>
      <point x="288" y="990"/>
      <point x="288" y="1128" type="curve" smooth="yes"/>
      <point x="288" y="1262"/>
      <point x="355" y="1366"/>
      <point x="482" y="1366" type="curve" smooth="yes"/>
      <point x="606" y="1366"/>
      <point x="672" y="1267"/>
      <point x="672" y="1128" type="curve" smooth="yes"/>
      <point x="672" y="992"/>
      <point x="607" y="885"/>
    </contour>
  </outline>
</glyph>
<glyph name="parenright" format="1">
  <advance width="846"/>
  <unicode hex="0029"/>
  <outline>
    <contour>
      <point x="640" y="657" type="curve" smooth="yes"/>
      <point x="640" y="1010"/>
      <point x="518" y="1389"/>
      <point x="364" y="1594" type="curve"/>
      <point x="146" y="1594" type="line"/>
      <point x="146" y="1556" type="line"/>
      <point x="291" y="1371"/>
      <point x="414" y="1099"/>
      <point x="414" y="657" type="curve" smooth="yes"/>
      <point x="414" y="216"/>
      <point x="291" y="-63"/>
      <point x="146" y="-248" type="curve"/>
      <point x="146" y="-279" type="line"/>
      <point x="364" y="-279" type="line"/>
      <point x="518" y="-74"/>
      <point x="640" y="305"/>
    </contour>
  </outline>
</glyph>
<glyph name="asterisk" format="1">
  <advance width="1017"/>
  <unicode hex="002A"/>
  <outline>
    <contour>
      <point x="339" y="510" type="line"/>
      <point x="509" y="844" type="line"/>
      <point x="688" y="508" type="line"/>
      <point x="702" y="518"/>
      <point x="874" y="617"/>
      <point x="887" y="626" type="curve"/>
      <point x="864" y="659"/>
      <point x="690" y="888"/>
      <point x="648" y="944" type="curve"/>
      <point x="995" y="1023" type="line"/>
      <point x="931" y="1247" type="line"/>
      <point x="591" y="1102" type="line"/>
      <point x="625" y="1503" type="line"/>
      <point x="397" y="1503" type="line"/>
      <point x="431" y="1102" type="line"/>
      <point x="94" y="1247" type="line"/>
      <point x="30" y="1023" type="line"/>
      <point x="374" y="944" type="line"/>
      <point x="135" y="626" type="line"/>
    </contour>
  </outline>
</glyph>
<glyph name="period" format="1">
  <advance width="704"/>
  <unicode hex="002E"/>
  <outline>
    <contour>
      <point x="348" y="-8" type="curve" smooth="yes"/>
      <point x="436" y="-8"/>
      <point x="500" y="42"/>
      <point x="500" y="142" type="curve" smooth="yes"/>
      <point x="500" y="244"/>
      <point x="436" y="295"/>
      <point x="348" y="295" type="curve" smooth="yes"/>
      <point x="260" y="295"/>
      <point x="196" y="244"/>
      <point x="196" y="142" type="curve" smooth="yes"/>
      <point x="196" y="41"/>
      <point x="261" y="-8"/>
    </contour>
  </outline>
</glyph>
<glyph name="two" format="1">
  <advance width="1343"/>
  <unicode hex="0032"/>
  <outline>
    <contour>
      <point x="296" y="1075" type="line"/>
      <point x="380" y="1175"/>
      <point x="516" y="1242"/>
      <point x="647" y="1242" type="curve" smooth="yes"/>
      <point x="770" y="1242"/>
      <point x="868" y="1166"/>
      <point x="868" y="1031" type="curve" smooth="yes"/>
      <point x="868" y="924"/>
      <point x="820" y="853"/>
      <point x="714" y="749" type="curve" smooth="yes"/>
      <point x="173" y="216" type="line"/>
      <point x="221" y="0" type="line"/>
      <point x="1137" y="0" type="line"/>
      <point x="1146" y="220" type="line"/>
      <point x="534" y="220" type="line"/>
      <point x="889" y="557" type="line" smooth="yes"/>
      <point x="1088" y="746"/>
      <point x="1159" y="872"/>
      <point x="1159" y="1027" type="curve" smooth="yes"/>
      <point x="1159" y="1266"/>
      <point x="1005" y="1476"/>
      <point x="650" y="1476" type="curve" smooth="yes"/>
      <point x="419" y="1476"/>
      <point x="235" y="1358"/>
      <point x="128" y="1231" type="curve"/>
      <point x="272" y="1075" type="line"/>
    </contour>
  </outline>
</glyph>
<glyph name="four" format="1">
  <advance width="1343"/>
  <unicode hex="0034"/>
  <outline>
    <contour>
      <point x="353" y="545" type="line"/>
      <point x="722" y="1149" type="line"/>
      <point x="722" y="545" type="line"/>
    </contour>
    <contour>
      <point x="722" y="0" type="line"/>
      <point x="1043" y="0" type="line"/>
      <point x="1043" y="339" type="line"/>
      <point x="1232" y="339" type="line"/>
      <point x="1246" y="549" type="line"/>
      <point x="1043" y="549" type="line"/>
      <point x="1043" y="1456" type="line"/>
      <point x="673" y="1456" type="line"/>
      <point x="105" y="535" type="line"/>
      <point x="132" y="339" type="line"/>
      <point x="722" y="339" type="line"/>
    </contour>
  </outline>
</glyph>
<glyph name="six" format="1">
  <advance width="1343"/>
  <unicode hex="0036"/>
  <outline>
    <contour>
      <point x="675" y="197" type="curve" smooth="yes"/>
      <point x="533" y="197"/>
      <point x="450" y="305"/>
      <point x="450" y="453" type="curve" smooth="yes"/>
      <point x="450" y="630"/>
      <point x="559" y="716"/>
      <point x="677" y="716" type="curve" smooth="yes"/>
      <point x="816" y="716"/>
      <point x="899" y="611"/>
      <point x="899" y="455" type="curve" smooth="yes"/>
      <point x="899" y="306"/>
      <point x="816" y="197"/>
    </contour>
    <contour>
      <point x="675" y="-20" type="curve" smooth="yes"/>
      <point x="1008" y="-20"/>
      <point x="1208" y="175"/>
      <point x="1208" y="447" type="curve" smooth="yes"/>
      <point x="1208" y="751"/>
      <point x="991" y="896"/>
      <point x="777" y="896" type="curve" smooth="yes"/>
      <point x="701" y="896"/>
      <point x="635" y="874"/>
      <point x="584" y="846" type="curve"/>
      <point x="736" y="1036"/>
      <point x="880" y="1233"/>
      <point x="1027" y="1428" type="curve"/>
      <point x="1027" y="1456" type="line"/>
      <point x="689" y="1456" type="line"/>
      <point x="314" y="922" type="line" smooth="yes"/>
      <point x="209" y="774"/>
      <point x="142" y="648"/>
      <point x="142" y="462" type="curve" smooth="yes"/>
      <point x="142" y="189"/>
      <point x="337" y="-20"/>
    </contour>
  </outline>
</glyph>
<glyph name="seven" format="1">
  <advance width="1343"/>
  <unicode hex="0037"/>
  <outline>
    <contour>
      <point x="327" y="0" type="line"/>
      <point x="659" y="0" type="line"/>
      <point x="1167" y="1230" type="line"/>
      <point x="1163" y="1456" type="line"/>
      <point x="180" y="1456" type="line"/>
      <point x="192" y="1230" type="line"/>
      <point x="833" y="1230" type="line"/>
    </contour>
  </outline>
</glyph>
<glyph name="colon" format="1">
  <advance width="692"/>
  <unicode hex="003A"/>
  <outline>
    <contour>
      <point x="350" y="-7" type="curve" smooth="yes"/>
      <point x="442" y="-7"/>
      <point x="508" y="48"/>
      <point x="508" y="143" type="curve" smooth="yes"/>
      <point x="508" y="241"/>
      <point x="442" y="299"/>
      <point x="350" y="299" type="curve" smooth="yes"/>
      <point x="259" y="299"/>
      <point x="192" y="241"/>
      <point x="192" y="143" type="curve" smooth="yes"/>
      <point x="192" y="47"/>
      <point x="261" y="-7"/>
    </contour>
    <contour>
      <point x="350" y="801" type="curve" smooth="yes"/>
      <point x="442" y="801"/>
      <point x="508" y="856"/>
      <point x="508" y="951" type="curve" smooth="yes"/>
      <point x="508" y="1049"/>
      <point x="442" y="1107"/>
      <point x="350" y="1107" type="curve" smooth="yes"/>
      <point x="259" y="1107"/>
      <point x="192" y="1049"/>
      <point x="192" y="951" type="curve" smooth="yes"/>
      <point x="192" y="855"/>
      <point x="261" y="801"/>
    </contour>
  </outline>
</glyph>
<glyph name="semicolon" format="1">
  <advance width="749"/>
  <unicode hex="003B"/>
  <outline>
    <contour>
      <point x="381" y="800" type="curve" smooth="yes"/>
      <point x="473" y="800"/>
      <point x="538" y="856"/>
      <point x="538" y="951" type="curve" smooth="yes"/>
      <point x="538" y="1049"/>
      <point x="473" y="1107"/>
      <point x="381" y="1107" type="curve" smooth="yes"/>
      <point x="290" y="1107"/>
      <point x="222" y="1049"/>
      <point x="222" y="951" type="curve" smooth="yes"/>
      <point x="222" y="854"/>
      <point x="291" y="800"/>
    </contour>
    <contour>
      <point x="217" y="-336" type="curve"/>
      <point x="396" y="-336" type="line"/>
      <point x="517" y="117" type="line"/>
      <point x="517" y="268" type="line"/>
      <point x="254" y="268" type="line"/>
      <point x="254" y="222"/>
      <point x="217" y="-336"/>
    </contour>
  </outline>
</glyph>
<glyph name="less" format="1">
  <advance width="1107"/>
  <unicode hex="003C"/>
  <outline>
    <contour>
      <point x="1003" y="173" type="line"/>
      <point x="1003" y="397" type="line"/>
      <point x="358" y="705" type="line"/>
      <point x="1003" y="1039" type="line"/>
      <point x="1003" y="1256" type="line"/>
      <point x="62" y="761" type="line"/>
      <point x="62" y="636" type="line"/>
    </contour>
  </outline>
</glyph>
<glyph name="greater" format="1">
  <advance width="1107"/>
  <unicode hex="003E"/>
  <outline>
    <contour>
      <point x="87" y="1041" type="line"/>
      <point x="729" y="705" type="line"/>
      <point x="86" y="399" type="line"/>
      <point x="86" y="175" type="line"/>
      <point x="1028" y="635" type="line"/>
      <point x="1028" y="761" type="line"/>
      <point x="87" y="1258" type="line"/>
    </contour>
  </outline>
</glyph>
<glyph name="B" format="1">
  <advance width="1423"/>
  <unicode hex="0042"/>
  <outline>
    <contour>
      <point x="687" y="1456" type="move" name="top"/>
    </contour>
    <contour>
      <point x="594" y="-1" type="curve" smooth="yes"/>
      <point x="1167" y="-1"/>
      <point x="1324" y="144"/>
      <point x="1324" y="433" type="curve" smooth="yes"/>
      <point x="1324" y="633"/>
      <point x="1229" y="738"/>
      <point x="1009" y="784" type="curve"/>
      <point x="1187" y="839"/>
      <point x="1282" y="946"/>
      <point x="1282" y="1088" type="curve" smooth="yes"/>
      <point x="1282" y="1399"/>
      <point x="1037" y="1466"/>
      <point x="622" y="1466" type="curve" smooth="yes"/>
      <point x="496" y="1466"/>
      <point x="348" y="1460"/>
      <point x="181" y="1448" type="curve"/>
      <point x="181" y="16" type="line"/>
      <point x="338" y="4"/>
      <point x="476" y="-1"/>
    </contour>
    <contour>
      <point x="505" y="1257" type="line"/>
      <point x="550" y="1260"/>
      <point x="600" y="1261"/>
      <point x="644" y="1261" type="curve" smooth="yes"/>
      <point x="867" y="1261"/>
      <point x="949" y="1218"/>
      <point x="949" y="1057" type="curve" smooth="yes"/>
      <point x="949" y="912"/>
      <point x="843" y="868"/>
      <point x="695" y="868" type="curve" smooth="yes"/>
      <point x="505" y="868" type="line"/>
    </contour>
    <contour>
      <point x="505" y="672" type="line"/>
      <point x="688" y="672" type="line" smooth="yes"/>
      <point x="898" y="672"/>
      <point x="1001" y="632"/>
      <point x="1001" y="451" type="curve" smooth="yes"/>
      <point x="1001" y="280"/>
      <point x="926" y="213"/>
      <point x="628" y="213" type="curve" smooth="yes"/>
      <point x="588" y="213"/>
      <point x="545" y="215"/>
      <point x="505" y="218" type="curve"/>
    </contour>
  </outline>
</glyph>
<glyph name="J" format="1">
  <advance width="811"/>
  <unicode hex="004A"/>
  <outline>
    <contour>
      <point x="462" y="1456" type="move" name="top"/>
    </contour>
    <contour>
      <point x="295" y="1456" type="line"/>
      <point x="295" y="205" type="line" smooth="yes"/>
      <point x="295" y="-100"/>
      <point x="287" y="-148"/>
      <point x="176" y="-200" type="curve" smooth="yes"/>
      <point x="3" y="-282" type="line"/>
      <point x="114" y="-530" type="line"/>
      <point x="257" y="-469" type="line" smooth="yes"/>
      <point x="610" y="-318"/>
      <point x="619" y="-202"/>
      <point x="619" y="141" type="curve" smooth="yes"/>
      <point x="619" y="198" type="line"/>
      <point x="619" y="1456" type="line"/>
    </contour>
  </outline>
</glyph>
<glyph name="Q" format="1">
  <advance width="1643"/>
  <unicode hex="0051"/>
  <outline>
    <component base="O"/>
    <contour>
      <point x="771" y="72" type="line"/>
      <point x="794" y="-2"/>
      <point x="1103" y="-410"/>
      <point x="1222" y="-508" type="curve"/>
      <point x="1426" y="-341" type="line"/>
      <point x="1311" y="-243"/>
      <point x="1123" y="5"/>
      <point x="1057" y="109" type="curve"/>
    </contour>
  </outline>
</glyph>
<glyph name="bracketleft" format="1">
  <advance width="823"/>
  <unicode hex="005B"/>
  <outline>
    <contour>
      <point x="224" y="-251" type="line"/>
      <point x="676" y="-251" type="line"/>
      <point x="676" y="-66" type="line"/>
      <point x="453" y="-66" type="line"/>
      <point x="453" y="1298" type="line"/>
      <point x="676" y="1298" type="line"/>
      <point x="676" y="1481" type="line"/>
      <point x="224" y="1481" type="line"/>
    </contour>
  </outline>
</glyph>
<glyph name="underscore" format="1">
  <advance width="973"/>
  <unicode hex="005F"/>
  <outline>
    <contour>
      <point x="0" y="-280" type="line"/>
      <point x="973" y="-280" type="line"/>
      <point x="973" y="-102" type="line"/>
      <point x="0" y="-102" type="line"/>
    </contour>
  </outline>
</glyph>
<glyph name="grave" format="1">
  <advance width="1033"/>
  <unicode hex="0060"/>
  <outline>
    <contour>
      <point x="533" y="1076" type="move" name="_top"/>
    </contour>
    <contour>
      <point x="418" y="1208" type="line"/>
      <point x="592" y="1208" type="line"/>
      <point x="412" y="1606" type="line"/>
      <point x="87" y="1606" type="line"/>
    </contour>
  </outline>
</glyph>
<glyph name="k" format="1">
  <advance width="1182"/>
  <unicode hex="006B"/>
  <outline>
    <contour>
      <point x="641" y="0" type="move" name="bot"/>
    </contour>
    <contour>
      <point x="146" y="0" type="line"/>
      <point x="453" y="0" type="line"/>
      <point x="453" y="418" type="line"/>
      <point x="522" y="483" type="line"/>
      <point x="856" y="0" type="line"/>
      <point x="1167" y="0" type="line"/>
      <point x="1167" y="29" type="line"/>
      <point x="750" y="607" type="line"/>
      <point x="1147" y="1062" type="line"/>
      <point x="1147" y="1082" type="line"/>
      <point x="824" y="1082" type="line"/>
      <point x="448" y="657" type="line"/>
      <point x="453" y="817" type="line"/>
      <point x="453" y="1560" type="line"/>
      <point x="146" y="1540" type="line"/>
    </contour>
  </outline>
</glyph>
<glyph name="m" format="1">
  <advance width="1889"/>
  <unicode hex="006D"/>
  <outline>
    <contour>
      <point x="1036" y="1082" type="move" name="top"/>
    </contour>
    <contour>
      <point x="139" y="0" type="line"/>
      <point x="445" y="0" type="line"/>
      <point x="445" y="628" type="line"/>
      <point x="454" y="811"/>
      <point x="532" y="902"/>
      <point x="642" y="902" type="curve" smooth="yes"/>
      <point x="749" y="902"/>
      <point x="797" y="831"/>
      <point x="797" y="618" type="curve" smooth="yes"/>
      <point x="797" y="0" type="line"/>
      <point x="1104" y="0" type="line"/>
      <point x="1104" y="660" type="line"/>
      <point x="1110" y="804"/>
      <point x="1207" y="902"/>
      <point x="1303" y="902" type="curve" smooth="yes"/>
      <point x="1419" y="902"/>
      <point x="1456" y="810"/>
      <point x="1456" y="631" type="curve" smooth="yes"/>
      <point x="1456" y="0" type="line"/>
      <point x="1763" y="0" type="line"/>
      <point x="1763" y="682" type="line" smooth="yes"/>
      <point x="1763" y="947"/>
      <point x="1637" y="1103"/>
      <point x="1402" y="1103" type="curve" smooth="yes"/>
      <point x="1227" y="1103"/>
      <point x="1123" y="1009"/>
      <point x="1066" y="886" type="curve"/>
      <point x="1008" y="1043"/>
      <point x="807" y="1060"/>
      <point x="742" y="1103" type="curve"/>
      <point x="578" y="1103"/>
      <point x="477" y="1014"/>
      <point x="420" y="895" type="curve"/>
      <point x="401" y="1082" type="line"/>
      <point x="139" y="1082" type="line"/>
    </contour>
  </outline>
</glyph>
<glyph name="p" format="1">
  <advance width="1254"/>
  <unicode hex="0070"/>
  <outline>
    <contour>
      <point x="662" y="1082" type="move" name="top"/>
    </contour>
    <contour>
      <point x="645" y="180" type="curve" smooth="yes"/>
      <point x="551" y="180"/>
      <point x="486" y="220"/>
      <point x="442" y="278" type="curve"/>
      <point x="442" y="697" type="line"/>
      <point x="464" y="820"/>
      <point x="535" y="902"/>
      <point x="661" y="902" type="curve" smooth="yes"/>
      <point x="784" y="902"/>
      <point x="855" y="802"/>
      <point x="855" y="547" type="curve" smooth="yes"/>
      <point x="855" y="266"/>
      <point x="766" y="180"/>
    </contour>
    <contour>
      <point x="141" y="-471" type="line"/>
      <point x="443" y="-471" type="line"/>
      <point x="443" y="-59" type="line"/>
      <point x="439" y="100" type="line"/>
      <point x="494" y="35"/>
      <point x="584" y="-20"/>
      <point x="717" y="-20" type="curve" smooth="yes"/>
      <point x="1009" y="-20"/>
      <point x="1162" y="215"/>
      <point x="1162" y="546" type="curve" smooth="yes"/>
      <point x="1162" y="867"/>
      <point x="1023" y="1103"/>
      <point x="733" y="1103" type="curve" smooth="yes"/>
      <point x="566" y="1103"/>
      <point x="468" y="1011"/>
      <point x="421" y="888" type="curve"/>
      <point x="410" y="1082" type="line"/>
      <point x="141" y="1082" type="line"/>
    </contour>
  </outline>
</glyph>
<glyph name="q" format="1">
  <advance width="1244"/>
  <unicode hex="0071"/>
  <outline>
    <contour>
      <point x="611" y="180" type="curve" smooth="yes"/>
      <point x="489" y="180"/>
      <point x="398" y="265"/>
      <point x="398" y="548" type="curve" smooth="yes"/>
      <point x="398" y="808"/>
      <point x="480" y="902"/>
      <point x="601" y="902" type="curve" smooth="yes"/>
      <point x="692" y="902"/>
      <point x="766" y="863"/>
      <point x="810" y="791" type="curve"/>
      <point x="810" y="272" type="line"/>
      <point x="770" y="219"/>
      <point x="706" y="180"/>
    </contour>
    <contour>
      <point x="809" y="-471" type="line"/>
      <point x="1111" y="-471" type="line"/>
      <point x="1111" y="1082" type="line"/>
      <point x="842" y="1082" type="line"/>
      <point x="834" y="927" type="line"/>
      <point x="783" y="1025"/>
      <point x="689" y="1103"/>
      <point x="535" y="1103" type="curve" smooth="yes"/>
      <point x="244" y="1103"/>
      <point x="91" y="868"/>
      <point x="91" y="548" type="curve" smooth="yes"/>
      <point x="91" y="214"/>
      <point x="239" y="-20"/>
      <point x="539" y="-20" type="curve" smooth="yes"/>
      <point x="541" y="-20" type="line" smooth="yes"/>
      <point x="662" y="-20"/>
      <point x="754" y="32"/>
      <point x="813" y="101" type="curve"/>
      <point x="809" y="-42" type="line"/>
    </contour>
  </outline>
</glyph>
<glyph name="w" format="1">
  <advance width="1527"/>
  <unicode hex="0077"/>
  <outline>
    <contour>
      <point x="776" y="1082" type="move" name="top"/>
    </contour>
    <contour>
      <point x="776" y="787" type="line"/>
      <point x="962" y="-4" type="line"/>
      <point x="1246" y="-4" type="line"/>
      <point x="1516" y="1082" type="line"/>
      <point x="1253" y="1082" type="line"/>
      <point x="1104" y="305" type="line"/>
      <point x="916" y="1082" type="line"/>
      <point x="636" y="1082" type="line"/>
      <point x="433" y="297" type="line"/>
      <point x="292" y="1082" type="line"/>
      <point x="9" y="1082" type="line"/>
      <point x="277" y="-4" type="line"/>
      <point x="550" y="-4" type="line"/>
    </contour>
  </outline>
</glyph>
<glyph name="x" format="1">
  <advance width="1086"/>
  <unicode hex="0078"/>
  <outline>
    <contour>
      <point x="711" y="546" type="line"/>
      <point x="1058" y="1082" type="line"/>
      <point x="771" y="1082" type="line"/>
      <point x="564" y="767" type="line"/>
      <point x="356" y="1082" type="line"/>
      <point x="32" y="1082" type="line"/>
      <point x="386" y="545" type="line"/>
      <point x="13" y="-4" type="line"/>
      <point x="304" y="-4" type="line"/>
      <point x="532" y="324" type="line"/>
      <point x="748" y="-4" type="line"/>
      <point x="1075" y="-4" type="line"/>
    </contour>
  </outline>
</glyph>
<glyph name="braceleft" format="1">
  <advance width="931"/>
  <unicode hex="007B"/>
  <outline>
    <contour>
      <point x="800" y="-301" type="curve"/>
      <point x="800" y="-130" type="line"/>
      <point x="667" y="-128"/>
      <point x="624" y="-112"/>
      <point x="624" y="45" type="curve" smooth="yes"/>
      <point x="624" y="357" type="line" smooth="yes"/>
      <point x="624" y="485"/>
      <point x="600" y="597"/>
      <point x="425" y="630" type="curve"/>
      <point x="600" y="664"/>
      <point x="624" y="776"/>
      <point x="624" y="903" type="curve" smooth="yes"/>
      <point x="624" y="1216" type="line" smooth="yes"/>
      <point x="624" y="1373"/>
      <point x="667" y="1389"/>
      <point x="800" y="1392" type="curve"/>
      <point x="800" y="1563" type="line"/>
      <point x="575" y="1563"/>
      <point x="401" y="1530"/>
      <point x="401" y="1274" type="curve" smooth="yes"/>
      <point x="401" y="950" type="line" smooth="yes"/>
      <point x="401" y="813"/>
      <point x="394" y="727"/>
      <point x="189" y="727" type="curve"/>
      <point x="189" y="534" type="line"/>
      <point x="395" y="534"/>
      <point x="401" y="447"/>
      <point x="401" y="311" type="curve" smooth="yes"/>
      <point x="401" y="-13" type="line" smooth="yes"/>
      <point x="401" y="-268"/>
      <point x="575" y="-301"/>
    </contour>
  </outline>
</glyph>
<glyph name="braceright" format="1">
  <advance width="931"/>
  <unicode hex="007D"/>
  <outline>
    <contour>
      <point x="153" y="-301" type="line"/>
      <point x="378" y="-301"/>
      <point x="552" y="-268"/>
      <point x="552" y="-13" type="curve" smooth="yes"/>
      <point x="552" y="311" type="line" smooth="yes"/>
      <point x="552" y="447"/>
      <point x="558" y="534"/>
      <point x="764" y="534" type="curve"/>
      <point x="764" y="727" type="line"/>
      <point x="559" y="727"/>
      <point x="552" y="813"/>
      <point x="552" y="950" type="curve" smooth="yes"/>
      <point x="552" y="1274" type="line" smooth="yes"/>
      <point x="552" y="1530"/>
      <point x="378" y="1563"/>
      <point x="153" y="1563" type="curve"/>
      <point x="153" y="1392" type="line"/>
      <point x="286" y="1389"/>
      <point x="329" y="1373"/>
      <point x="329" y="1216" type="curve" smooth="yes"/>
      <point x="329" y="903" type="line" smooth="yes"/>
      <point x="329" y="776"/>
      <point x="353" y="664"/>
      <point x="528" y="630" type="curve"/>
      <point x="353" y="597"/>
      <point x="329" y="485"/>
      <point x="329" y="357" type="curve" smooth="yes"/>
      <point x="329" y="45" type="line" smooth="yes"/>
      <point x="329" y="-112"/>
      <point x="286" y="-128"/>
      <point x="153" y="-130" type="curve"/>
    </contour>
  </outline>
</glyph>
<glyph name="yen" format="1">
  <advance width="1353"/>
  <unicode hex="00A5"/>
  <outline>
    <component base="Y"/>
    <contour>
      <point x="207" y="526" type="line"/>
      <point x="1119" y="526" type="line"/>
      <point x="1119" y="659" type="line"/>
      <point x="207" y="659" type="line"/>
    </contour>
    <contour>
      <point x="207" y="244" type="line"/>
      <point x="1119" y="244" type="line"/>
      <point x="1119" y="376" type="line"/>
      <point x="207" y="376" type="line"/>
    </contour>
  </outline>
</glyph>
<glyph name="brokenbar" format="1">
  <advance width="733"/>
  <unicode hex="00A6"/>
  <outline>
    <contour>
      <point x="257" y="1479" type="line"/>
      <point x="257" y="773" type="line"/>
      <point x="455" y="773" type="line"/>
      <point x="455" y="1479" type="line"/>
    </contour>
    <contour>
      <point x="257" y="367" type="line"/>
      <point x="257" y="-341" type="line"/>
      <point x="455" y="-341" type="line"/>
      <point x="455" y="367" type="line"/>
    </contour>
  </outline>
</glyph>
<glyph name="guillemotleft" format="1">
  <advance width="1033"/>
  <unicode hex="00AB"/>
  <outline>
    <contour>
      <point x="770" y="134" type="line"/>
      <point x="950" y="134" type="line"/>
      <point x="694" y="569" type="line"/>
      <point x="954" y="1002" type="line"/>
      <point x="772" y="1002" type="line"/>
      <point x="462" y="566" type="line"/>
    </contour>
    <contour>
      <point x="360" y="134" type="line"/>
      <point x="540" y="134" type="line"/>
      <point x="283" y="569" type="line"/>
      <point x="545" y="1002" type="line"/>
      <point x="363" y="1002" type="line"/>
      <point x="51" y="566" type="line"/>
    </contour>
  </outline>
</glyph>
<glyph name="logicalnot" format="1">
  <advance width="1210"/>
  <unicode hex="00AC"/>
  <outline>
    <contour>
      <point x="96" y="841" type="line"/>
      <point x="96" y="647" type="line"/>
      <point x="898" y="647" type="line"/>
      <point x="898" y="250" type="line"/>
      <point x="1088" y="250" type="line"/>
      <point x="1088" y="841" type="line"/>
    </contour>
  </outline>
</glyph>
<glyph name="registered" format="1">
  <advance width="1887"/>
  <unicode hex="00AE"/>
  <outline>
    <contour>
      <point x="907" y="-45" type="curve" smooth="yes"/>
      <point x="1322" y="-45"/>
      <point x="1680" y="273"/>
      <point x="1680" y="729" type="curve" smooth="yes"/>
      <point x="1680" y="1184"/>
      <point x="1322" y="1501"/>
      <point x="907" y="1501" type="curve" smooth="yes"/>
      <point x="491" y="1501"/>
      <point x="134" y="1184"/>
      <point x="134" y="729" type="curve" smooth="yes"/>
      <point x="134" y="273"/>
      <point x="491" y="-45"/>
    </contour>
    <contour>
      <point x="907" y="92" type="curve" smooth="yes"/>
      <point x="573" y="92"/>
      <point x="289" y="354"/>
      <point x="289" y="729" type="curve" smooth="yes"/>
      <point x="289" y="1102"/>
      <point x="573" y="1364"/>
      <point x="907" y="1364" type="curve" smooth="yes"/>
      <point x="1241" y="1364"/>
      <point x="1526" y="1102"/>
      <point x="1526" y="729" type="curve" smooth="yes"/>
      <point x="1526" y="354"/>
      <point x="1241" y="92"/>
    </contour>
    <contour>
      <point x="765" y="821" type="line"/>
      <point x="765" y="1070" type="line"/>
      <point x="871" y="1070" type="line"/>
      <point x="878" y="1070" type="line" smooth="yes"/>
      <point x="1029" y="1070"/>
      <point x="1086" y="1069"/>
      <point x="1086" y="946" type="curve" smooth="yes"/>
      <point x="1086" y="846"/>
      <point x="1027" y="821"/>
      <point x="886" y="821" type="curve" smooth="yes"/>
    </contour>
    <contour>
      <point x="610" y="314" type="line"/>
      <point x="766" y="314" type="line"/>
      <point x="766" y="711" type="line"/>
      <point x="880" y="711" type="line"/>
      <point x="883" y="707"/>
      <point x="1103" y="314"/>
      <point x="1103" y="314" type="curve"/>
      <point x="1284" y="314" type="line"/>
      <point x="1284" y="314"/>
      <point x="1048" y="715"/>
      <point x="1042" y="722" type="curve"/>
      <point x="1188" y="756"/>
      <point x="1241" y="828"/>
      <point x="1241" y="952" type="curve" smooth="yes"/>
      <point x="1241" y="1146"/>
      <point x="1112" y="1193"/>
      <point x="900" y="1193" type="curve" smooth="yes"/>
      <point x="610" y="1193" type="line"/>
    </contour>
  </outline>
</glyph>
<glyph name="degree" format="1">
  <advance width="842"/>
  <unicode hex="00B0"/>
  <outline>
    <contour>
      <point x="425" y="898" type="curve" smooth="yes"/>
      <point x="618" y="898"/>
      <point x="736" y="1044"/>
      <point x="736" y="1205" type="curve" smooth="yes"/>
      <point x="736" y="1370"/>
      <point x="614" y="1503"/>
      <point x="425" y="1503" type="curve" smooth="yes"/>
      <point x="234" y="1503"/>
      <point x="113" y="1370"/>
      <point x="113" y="1205" type="curve" smooth="yes"/>
      <point x="113" y="1041"/>
      <point x="231" y="898"/>
    </contour>
    <contour>
      <point x="425" y="1037" type="curve" smooth="yes"/>
      <point x="341" y="1037"/>
      <point x="267" y="1098"/>
      <point x="267" y="1204" type="curve" smooth="yes"/>
      <point x="267" y="1305"/>
      <point x="341" y="1366"/>
      <point x="426" y="1366" type="curve" smooth="yes"/>
      <point x="506" y="1366"/>
      <point x="581" y="1305"/>
      <point x="581" y="1204" type="curve" smooth="yes"/>
      <point x="581" y="1098"/>
      <point x="508" y="1037"/>
    </contour>
  </outline>
</glyph>
<glyph name="plusminus" format="1">
  <advance width="1136"/>
  <unicode hex="00B1"/>
  <outline>
    <contour>
      <point x="105" y="179" type="line"/>
      <point x="105" y="0" type="line"/>
      <point x="1041" y="0" type="line"/>
      <point x="1041" y="179" type="line"/>
    </contour>
    <contour>
      <point x="469" y="1198" type="line"/>
      <point x="469" y="844" type="line"/>
      <point x="109" y="844" type="line"/>
      <point x="109" y="644" type="line"/>
      <point x="469" y="644" type="line"/>
      <point x="469" y="295" type="line"/>
      <point x="674" y="295" type="line"/>
      <point x="674" y="644" type="line"/>
      <point x="1032" y="644" type="line"/>
      <point x="1032" y="844" type="line"/>
      <point x="674" y="844" type="line"/>
      <point x="674" y="1198" type="line"/>
    </contour>
  </outline>
</glyph>
<glyph name="uni00B3" format="1">
  <advance width="881"/>
  <unicode hex="00B3"/>
  <outline>
    <contour>
      <point x="432" y="593" type="curve" smooth="yes"/>
      <point x="608" y="593"/>
      <point x="763" y="679"/>
      <point x="763" y="858" type="curve" smooth="yes"/>
      <point x="763" y="958"/>
      <point x="705" y="1047"/>
      <point x="606" y="1067" type="curve"/>
      <point x="708" y="1087"/>
      <point x="746" y="1170"/>
      <point x="748" y="1255" type="curve" smooth="yes"/>
      <point x="748" y="1419"/>
      <point x="616" y="1482"/>
      <point x="468" y="1482" type="curve" smooth="yes"/>
      <point x="357" y="1482"/>
      <point x="243" y="1449"/>
      <point x="162" y="1394" type="curve"/>
      <point x="218" y="1283" type="line"/>
      <point x="284" y="1325"/>
      <point x="363" y="1348"/>
      <point x="437" y="1348" type="curve" smooth="yes"/>
      <point x="523" y="1348"/>
      <point x="589" y="1315"/>
      <point x="589" y="1237" type="curve" smooth="yes"/>
      <point x="589" y="1171"/>
      <point x="565" y="1128"/>
      <point x="432" y="1128" type="curve" smooth="yes"/>
      <point x="312" y="1128" type="line"/>
      <point x="312" y="998" type="line"/>
      <point x="430" y="999" type="line"/>
      <point x="436" y="999" type="line" smooth="yes"/>
      <point x="555" y="999"/>
      <point x="607" y="944"/>
      <point x="607" y="865" type="curve" smooth="yes"/>
      <point x="607" y="771"/>
      <point x="523" y="728"/>
      <point x="426" y="728" type="curve" smooth="yes"/>
      <point x="344" y="728"/>
      <point x="264" y="756"/>
      <point x="212" y="800" type="curve"/>
      <point x="153" y="670" type="line"/>
      <point x="232" y="619"/>
      <point x="334" y="593"/>
    </contour>
  </outline>
</glyph>
<glyph name="uni00B5" format="1">
  <advance width="1230"/>
  <unicode hex="00B5"/>
  <outline>
    <component base="u"/>
    <contour>
      <point x="118" y="613" type="line"/>
      <point x="118" y="-316" type="line"/>
      <point x="425" y="-316" type="line"/>
      <point x="425" y="613" type="line"/>
    </contour>
  </outline>
</glyph>
<glyph name="periodcentered" format="1">
  <advance width="612"/>
  <unicode hex="00B7"/>
  <outline>
    <contour>
      <point x="445" y="465" type="curve" smooth="yes"/>
      <point x="537" y="465"/>
      <point x="598" y="528"/>
      <point x="598" y="627" type="curve" smooth="yes"/>
      <point x="598" y="722"/>
      <point x="537" y="783"/>
      <point x="445" y="783" type="curve" smooth="yes"/>
      <point x="351" y="783"/>
      <point x="289" y="722"/>
      <point x="289" y="627" type="curve" smooth="yes"/>
      <point x="289" y="528"/>
      <point x="351" y="465"/>
    </contour>
  </outline>
</glyph>
<glyph name="cedilla" format="1">
  <advance width="737"/>
  <unicode hex="00B8"/>
  <outline>
    <contour>
      <point x="481" y="19" type="move" name="_bot"/>
    </contour>
    <contour>
      <point x="420" y="-414" type="curve" smooth="yes"/>
      <point x="562" y="-414"/>
      <point x="674" y="-337"/>
      <point x="674" y="-205" type="curve" smooth="yes"/>
      <point x="674" y="-95"/>
      <point x="604" y="-37"/>
      <point x="506" y="-37" type="curve" smooth="yes"/>
      <point x="471" y="-37"/>
      <point x="432" y="-45"/>
      <point x="392" y="-60" type="curve"/>
      <point x="392" y="-126" type="line"/>
      <point x="407" y="-124"/>
      <point x="421" y="-123"/>
      <point x="433" y="-123" type="curve" smooth="yes"/>
      <point x="501" y="-123"/>
      <point x="525" y="-156"/>
      <point x="525" y="-198" type="curve" smooth="yes"/>
      <point x="525" y="-251"/>
      <point x="479" y="-290"/>
      <point x="402" y="-290" type="curve" smooth="yes"/>
      <point x="370" y="-290"/>
      <point x="333" y="-283"/>
      <point x="292" y="-268" type="curve"/>
      <point x="253" y="-378" type="line"/>
      <point x="308" y="-402"/>
      <point x="365" y="-414"/>
    </contour>
  </outline>
</glyph>
<glyph name="uni00B9" format="1">
  <advance width="865"/>
  <unicode hex="00B9"/>
  <outline>
    <contour>
      <point x="244" y="577" type="line"/>
      <point x="723" y="577" type="line"/>
      <point x="723" y="732" type="line"/>
      <point x="577" y="732" type="line"/>
      <point x="577" y="1467" type="line"/>
      <point x="432" y="1467" type="line"/>
      <point x="403" y="1449"/>
      <point x="280" y="1379"/>
      <point x="230" y="1354" type="curve"/>
      <point x="230" y="1199" type="line"/>
      <point x="238" y="1199"/>
      <point x="351" y="1255"/>
      <point x="388" y="1274" type="curve"/>
      <point x="388" y="732" type="line"/>
      <point x="244" y="732" type="line"/>
    </contour>
  </outline>
</glyph>
<glyph name="ordmasculine" format="1">
  <advance width="965"/>
  <unicode hex="00BA"/>
  <outline>
    <contour>
      <point x="658" y="1120" type="curve" smooth="yes"/>
      <point x="658" y="958"/>
      <point x="601" y="879"/>
      <point x="480" y="879" type="curve" smooth="yes"/>
      <point x="368" y="879"/>
      <point x="309" y="959"/>
      <point x="309" y="1123" type="curve" smooth="yes"/>
      <point x="309" y="1289"/>
      <point x="369" y="1370"/>
      <point x="480" y="1370" type="curve" smooth="yes"/>
      <point x="595" y="1370"/>
      <point x="658" y="1286"/>
    </contour>
    <contour>
      <point x="116" y="1123" type="curve" smooth="yes"/>
      <point x="116" y="894"/>
      <point x="244" y="716"/>
      <point x="480" y="716" type="curve" smooth="yes"/>
      <point x="704" y="716"/>
      <point x="844" y="896"/>
      <point x="844" y="1123" type="curve" smooth="yes"/>
      <point x="844" y="1356"/>
      <point x="722" y="1533"/>
      <point x="480" y="1533" type="curve" smooth="yes"/>
      <point x="244" y="1533"/>
      <point x="116" y="1353"/>
    </contour>
  </outline>
</glyph>
<glyph name="onehalf" format="1">
  <advance width="1905"/>
  <unicode hex="00BD"/>
  <outline>
    <contour>
      <point x="393" y="0" type="line"/>
      <point x="581" y="0" type="line"/>
      <point x="1546" y="1500" type="line"/>
      <point x="1358" y="1500" type="line"/>
    </contour>
    <contour>
      <point x="151" y="598" type="line"/>
      <point x="637" y="598" type="line"/>
      <point x="637" y="734" type="line"/>
      <point x="495" y="734" type="line"/>
      <point x="495" y="1500" type="line"/>
      <point x="350" y="1500" type="line"/>
      <point x="320" y="1479"/>
      <point x="189" y="1410"/>
      <point x="142" y="1387" type="curve"/>
      <point x="142" y="1250" type="line"/>
      <point x="152" y="1251"/>
      <point x="269" y="1305"/>
      <point x="306" y="1325" type="curve"/>
      <point x="306" y="734" type="line"/>
      <point x="151" y="734" type="line"/>
    </contour>
    <contour>
      <point x="1244" y="0" type="line"/>
      <point x="1791" y="0" type="line"/>
      <point x="1797" y="142" type="line"/>
      <point x="1445" y="142" type="line"/>
      <point x="1629" y="306" type="line" smooth="yes"/>
      <point x="1754" y="417"/>
      <point x="1804" y="511"/>
      <point x="1804" y="609" type="curve" smooth="yes"/>
      <point x="1804" y="751"/>
      <point x="1713" y="881"/>
      <point x="1496" y="881" type="curve" smooth="yes"/>
      <point x="1352" y="881"/>
      <point x="1238" y="803"/>
      <point x="1176" y="717" type="curve"/>
      <point x="1273" y="613" type="line"/>
      <point x="1327" y="683"/>
      <point x="1411" y="726"/>
      <point x="1491" y="726" type="curve" smooth="yes"/>
      <point x="1560" y="726"/>
      <point x="1617" y="685"/>
      <point x="1617" y="611" type="curve" smooth="yes"/>
      <point x="1617" y="555"/>
      <point x="1587" y="497"/>
      <point x="1514" y="425" type="curve" smooth="yes"/>
      <point x="1220" y="137" type="line"/>
    </contour>
  </outline>
</glyph>
<glyph name="threequarters" format="1">
  <advance width="1727"/>
  <unicode hex="00BE"/>
  <outline>
    <contour>
      <point x="1259" y="318" type="line"/>
      <point x="1457" y="655" type="line"/>
      <point x="1457" y="318" type="line"/>
    </contour>
    <contour>
      <point x="415" y="0" type="line"/>
      <point x="615" y="0" type="line"/>
      <point x="1586" y="1499" type="line"/>
      <point x="1393" y="1499" type="line"/>
    </contour>
    <contour>
      <point x="1456" y="0" type="line"/>
      <point x="1619" y="0" type="line"/>
      <point x="1619" y="181" type="line"/>
      <point x="1721" y="181" type="line"/>
      <point x="1731" y="318" type="line"/>
      <point x="1618" y="318" type="line"/>
      <point x="1618" y="871" type="line"/>
      <point x="1446" y="871" type="line"/>
      <point x="1081" y="319" type="line"/>
      <point x="1081" y="181" type="line"/>
      <point x="1456" y="181" type="line"/>
    </contour>
    <contour>
      <point x="370" y="580" type="curve" smooth="yes"/>
      <point x="543" y="580"/>
      <point x="697" y="667"/>
      <point x="697" y="851" type="curve" smooth="yes"/>
      <point x="697" y="947"/>
      <point x="642" y="1036"/>
      <point x="540" y="1059" type="curve"/>
      <point x="645" y="1080"/>
      <point x="677" y="1172"/>
      <point x="679" y="1248" type="curve" smooth="yes"/>
      <point x="679" y="1409"/>
      <point x="548" y="1474"/>
      <point x="401" y="1474" type="curve" smooth="yes"/>
      <point x="299" y="1474"/>
      <point x="190" y="1444"/>
      <point x="109" y="1391" type="curve"/>
      <point x="165" y="1275" type="line"/>
      <point x="236" y="1315"/>
      <point x="312" y="1335"/>
      <point x="374" y="1335" type="curve" smooth="yes"/>
      <point x="455" y="1335"/>
      <point x="514" y="1301"/>
      <point x="514" y="1227" type="curve" smooth="yes"/>
      <point x="514" y="1161"/>
      <point x="486" y="1121"/>
      <point x="364" y="1121" type="curve" smooth="yes"/>
      <point x="251" y="1121" type="line"/>
      <point x="251" y="984" type="line"/>
      <point x="363" y="986" type="line"/>
      <point x="367" y="986" type="line" smooth="yes"/>
      <point x="485" y="986"/>
      <point x="534" y="936"/>
      <point x="534" y="855" type="curve" smooth="yes"/>
      <point x="534" y="760"/>
      <point x="456" y="721"/>
      <point x="365" y="721" type="curve" smooth="yes"/>
      <point x="294" y="721"/>
      <point x="216" y="745"/>
      <point x="160" y="785" type="curve"/>
      <point x="102" y="652" type="line"/>
      <point x="182" y="605"/>
      <point x="278" y="580"/>
    </contour>
  </outline>
</glyph>
<glyph name="AE" format="1">
  <advance width="1913"/>
  <unicode hex="00C6"/>
  <outline>
    <contour>
      <point x="909" y="583" type="line"/>
      <point x="613" y="583" type="line"/>
      <point x="909" y="1121" type="line"/>
    </contour>
    <contour>
      <point x="840" y="1456" type="line"/>
      <point x="-20" y="0" type="line"/>
      <point x="302" y="0" type="line"/>
      <point x="521" y="389" type="line"/>
      <point x="909" y="389" type="line"/>
      <point x="909" y="0" type="line"/>
      <point x="1808" y="0" type="line"/>
      <point x="1818" y="218" type="line"/>
      <point x="1167" y="218" type="line"/>
      <point x="1167" y="637" type="line"/>
      <point x="1749" y="637" type="line"/>
      <point x="1749" y="850" type="line"/>
      <point x="1167" y="850" type="line"/>
      <point x="1167" y="1244" type="line"/>
      <point x="1781" y="1244" type="line"/>
      <point x="1797" y="1456" type="line"/>
    </contour>
  </outline>
</glyph>
<glyph name="Oslash" format="1">
  <advance width="1651"/>
  <unicode hex="00D8"/>
  <outline>
    <contour>
      <point x="826" y="1456" type="move" name="top"/>
    </contour>
    <contour>
      <point x="826" y="215" type="curve" smooth="yes"/>
      <point x="788" y="215"/>
      <point x="753" y="220"/>
      <point x="721" y="230" type="curve"/>
      <point x="1065" y="1128" type="line"/>
      <point x="1142" y="1041"/>
      <point x="1177" y="900"/>
      <point x="1177" y="721" type="curve" smooth="yes"/>
      <point x="1177" y="405"/>
      <point x="1068" y="215"/>
    </contour>
    <contour>
      <point x="603" y="309" type="line"/>
      <point x="512" y="390"/>
      <point x="472" y="535"/>
      <point x="472" y="721" type="curve" smooth="yes"/>
      <point x="472" y="1042"/>
      <point x="588" y="1239"/>
      <point x="826" y="1239" type="curve" smooth="yes"/>
      <point x="871" y="1239"/>
      <point x="912" y="1232"/>
      <point x="948" y="1219" type="curve"/>
    </contour>
    <contour>
      <point x="535" y="-255" type="line"/>
      <point x="631" y="-2" type="line"/>
      <point x="692" y="-15"/>
      <point x="757" y="-21"/>
      <point x="826" y="-21" type="curve" smooth="yes"/>
      <point x="1280" y="-21"/>
      <point x="1521" y="254"/>
      <point x="1521" y="723" type="curve" smooth="yes"/>
      <point x="1521" y="1054"/>
      <point x="1399" y="1292"/>
      <point x="1171" y="1404" type="curve"/>
      <point x="1271" y="1667" type="line"/>
      <point x="1137" y="1719" type="line"/>
      <point x="1036" y="1451" type="line"/>
      <point x="972" y="1468"/>
      <point x="902" y="1476"/>
      <point x="826" y="1476" type="curve" smooth="yes"/>
      <point x="375" y="1476"/>
      <point x="128" y="1195"/>
      <point x="128" y="722" type="curve" smooth="yes"/>
      <point x="128" y="382"/>
      <point x="256" y="144"/>
      <point x="500" y="39" type="curve"/>
      <point x="407" y="-208" type="line"/>
    </contour>
  </outline>
</glyph>
<glyph name="Thorn" format="1">
  <advance width="1379"/>
  <unicode hex="00DE"/>
  <outline>
    <contour>
      <point x="176" y="0" type="line"/>
      <point x="501" y="0" type="line"/>
      <point x="501" y="359" type="line"/>
      <point x="652" y="359" type="line" smooth="yes"/>
      <point x="1117" y="359"/>
      <point x="1276" y="527"/>
      <point x="1276" y="832" type="curve" smooth="yes"/>
      <point x="1276" y="1126"/>
      <point x="1088" y="1246"/>
      <point x="619" y="1246" type="curve" smooth="yes"/>
      <point x="501" y="1246" type="line"/>
      <point x="501" y="1469" type="line"/>
      <point x="176" y="1469" type="line"/>
    </contour>
    <contour>
      <point x="501" y="1037" type="line"/>
      <point x="634" y="1037" type="line"/>
      <point x="639" y="1037" type="line" smooth="yes"/>
      <point x="899" y="1037"/>
      <point x="962" y="961"/>
      <point x="962" y="818" type="curve" smooth="yes"/>
      <point x="962" y="665"/>
      <point x="892" y="572"/>
      <point x="612" y="572" type="curve" smooth="yes"/>
      <point x="501" y="572" type="line"/>
    </contour>
  </outline>
</glyph>
<glyph name="divide" format="1">
  <advance width="1244"/>
  <unicode hex="00F7"/>
  <outline>
    <contour>
      <point x="481" y="1147" type="line"/>
      <point x="481" y="887" type="line"/>
      <point x="752" y="887" type="line"/>
      <point x="752" y="1147" type="line"/>
    </contour>
    <contour>
      <point x="481" y="294" type="line"/>
      <point x="481" y="22" type="line"/>
      <point x="744" y="22" type="line"/>
      <point x="744" y="294" type="line"/>
    </contour>
    <contour>
      <point x="88" y="687" type="line"/>
      <point x="88" y="494" type="line"/>
      <point x="1136" y="494" type="line"/>
      <point x="1136" y="687" type="line"/>
    </contour>
  </outline>
</glyph>
<glyph name="oslash" format="1">
  <advance width="1239"/>
  <unicode hex="00F8"/>
  <outline>
    <component base="o"/>
    <contour>
      <point x="220" y="-125" type="line"/>
      <point x="294" y="-173" type="line"/>
      <point x="1032" y="1207" type="line"/>
      <point x="952" y="1255" type="line"/>
    </contour>
  </outline>
</glyph>
<glyph name="eng" format="1">
  <advance width="1230"/>
  <unicode hex="014B"/>
  <outline>
    <component base="n"/>
    <contour>
      <point x="815" y="165" type="line"/>
      <point x="815" y="-16" type="line"/>
      <point x="814" y="-242"/>
      <point x="780" y="-284"/>
      <point x="512" y="-284" type="curve"/>
      <point x="531" y="-484" type="line"/>
      <point x="986" y="-471"/>
      <point x="1121" y="-356"/>
      <point x="1121" y="-45" type="curve" smooth="yes"/>
      <point x="1121" y="165" type="line"/>
    </contour>
  </outline>
</glyph>
<glyph name="OE" format="1">
  <advance width="2269"/>
  <unicode hex="0152"/>
  <outline>
    <contour>
      <point x="1141" y="725" type="curve" smooth="yes"/>
      <point x="1141" y="411"/>
      <point x="1030" y="211"/>
      <point x="761" y="211" type="curve" smooth="yes"/>
      <point x="492" y="211"/>
      <point x="377" y="411"/>
      <point x="377" y="725" type="curve" smooth="yes"/>
      <point x="377" y="1049"/>
      <point x="496" y="1253"/>
      <point x="761" y="1253" type="curve" smooth="yes"/>
      <point x="1028" y="1253"/>
      <point x="1141" y="1048"/>
    </contour>
    <contour>
      <point x="92" y="726" type="curve" smooth="yes"/>
      <point x="92" y="254"/>
      <point x="330" y="-17"/>
      <point x="761" y="-17" type="curve" smooth="yes"/>
      <point x="934" y="-17"/>
      <point x="1053" y="22"/>
      <point x="1142" y="97" type="curve"/>
      <point x="1142" y="0" type="line"/>
      <point x="2123" y="0" type="line"/>
      <point x="2129" y="218" type="line"/>
      <point x="1407" y="218" type="line"/>
      <point x="1407" y="641" type="line"/>
      <point x="2064" y="641" type="line"/>
      <point x="2064" y="854" type="line"/>
      <point x="1407" y="854" type="line"/>
      <point x="1407" y="1244" type="line"/>
      <point x="2096" y="1244" type="line"/>
      <point x="2111" y="1456" type="line"/>
      <point x="1142" y="1456" type="line"/>
      <point x="1142" y="1364" type="line"/>
      <point x="1052" y="1441"/>
      <point x="935" y="1481"/>
      <point x="761" y="1481" type="curve" smooth="yes"/>
      <point x="333" y="1481"/>
      <point x="92" y="1208"/>
    </contour>
  </outline>
</glyph>
<glyph name="florin" format="1">
  <advance width="1153"/>
  <unicode hex="0192"/>
  <outline>
    <contour>
      <point x="476" y="1265" type="curve" smooth="yes"/>
      <point x="439" y="1039" type="line"/>
      <point x="231" y="1039" type="line"/>
      <point x="215" y="963" type="line"/>
      <point x="428" y="963" type="line"/>
      <point x="275" y="108" type="line"/>
      <point x="235" y="-139"/>
      <point x="218" y="-231"/>
      <point x="69" y="-231" type="curve" smooth="yes"/>
      <point x="31" y="-231"/>
      <point x="-14" y="-225"/>
      <point x="-71" y="-214" type="curve"/>
      <point x="-99" y="-324" type="line"/>
      <point x="-18" y="-353"/>
      <point x="55" y="-368"/>
      <point x="121" y="-368" type="curve" smooth="yes"/>
      <point x="329" y="-368"/>
      <point x="465" y="-220"/>
      <point x="526" y="115" type="curve" smooth="yes"/>
      <point x="679" y="963" type="line"/>
      <point x="975" y="963" type="line"/>
      <point x="991" y="1039" type="line"/>
      <point x="696" y="1039" type="line"/>
      <point x="743" y="1307" type="line" smooth="yes"/>
      <point x="769" y="1451"/>
      <point x="828" y="1519"/>
      <point x="935" y="1519" type="curve" smooth="yes"/>
      <point x="1043" y="1519"/>
      <point x="1070" y="1433"/>
      <point x="1082" y="1306" type="curve"/>
      <point x="1231" y="1306" type="line"/>
      <point x="1224" y="1542"/>
      <point x="1123" y="1677"/>
      <point x="908" y="1677" type="curve" smooth="yes"/>
      <point x="667" y="1677"/>
      <point x="520" y="1532"/>
    </contour>
  </outline>
</glyph>
<glyph name="circumflex" format="1">
  <advance width="918"/>
  <unicode hex="02C6"/>
  <outline>
    <contour>
      <point x="444" y="1082" type="move" name="_top"/>
    </contour>
    <contour>
      <point x="100" y="1289" type="line"/>
      <point x="337" y="1289" type="line"/>
      <point x="443" y="1503" type="line"/>
      <point x="549" y="1289" type="line"/>
      <point x="786" y="1289" type="line"/>
      <point x="579" y="1671" type="line"/>
      <point x="307" y="1671" type="line"/>
    </contour>
  </outline>
</glyph>
<glyph name="uni02C9" format="1">
  <advance width="600"/>
  <unicode hex="02C9"/>
  <outline>
    <contour>
      <point x="295" y="1076" type="move" name="_top"/>
    </contour>
    <contour>
      <point x="-50" y="1339" type="line"/>
      <point x="636" y="1339" type="line"/>
      <point x="636" y="1506" type="line"/>
      <point x="-50" y="1506" type="line"/>
    </contour>
  </outline>
</glyph>
<glyph name="breve" format="1">
  <advance width="918"/>
  <unicode hex="02D8"/>
  <outline>
    <contour>
      <point x="441" y="1076" type="move" name="_top"/>
    </contour>
    <contour>
      <point x="440" y="1311" type="curve" smooth="yes"/>
      <point x="608" y="1311"/>
      <point x="721" y="1408"/>
      <point x="721" y="1576" type="curve"/>
      <point x="555" y="1576" type="line"/>
      <point x="555" y="1509"/>
      <point x="504" y="1473"/>
      <point x="440" y="1473" type="curve" smooth="yes"/>
      <point x="375" y="1473"/>
      <point x="326" y="1509"/>
      <point x="326" y="1576" type="curve"/>
      <point x="157" y="1576" type="line"/>
      <point x="157" y="1408"/>
      <point x="270" y="1311"/>
    </contour>
  </outline>
</glyph>
<glyph name="ring" format="1">
  <advance width="785"/>
  <unicode hex="02DA"/>
  <outline>
    <contour>
      <point x="371" y="1076" type="move" name="_top"/>
    </contour>
    <contour>
      <point x="373" y="1193" type="curve" smooth="yes"/>
      <point x="507" y="1193"/>
      <point x="592" y="1293"/>
      <point x="592" y="1405" type="curve" smooth="yes"/>
      <point x="592" y="1516"/>
      <point x="509" y="1615"/>
      <point x="373" y="1615" type="curve" smooth="yes"/>
      <point x="239" y="1615"/>
      <point x="157" y="1518"/>
      <point x="157" y="1405" type="curve" smooth="yes"/>
      <point x="157" y="1293"/>
      <point x="240" y="1193"/>
    </contour>
    <contour>
      <point x="373" y="1299" type="curve" smooth="yes"/>
      <point x="311" y="1299"/>
      <point x="282" y="1347"/>
      <point x="282" y="1404" type="curve" smooth="yes"/>
      <point x="282" y="1457"/>
      <point x="315" y="1509"/>
      <point x="373" y="1509" type="curve" smooth="yes"/>
      <point x="433" y="1509"/>
      <point x="469" y="1457"/>
      <point x="469" y="1404" type="curve" smooth="yes"/>
      <point x="469" y="1348"/>
      <point x="433" y="1299"/>
    </contour>
  </outline>
</glyph>
<glyph name="endash" format="1">
  <advance width="1215"/>
  <unicode hex="2013"/>
  <outline>
    <contour>
      <point x="117" y="465" type="line"/>
      <point x="1098" y="465" type="line"/>
      <point x="1098" y="662" type="line"/>
      <point x="117" y="662" type="line"/>
    </contour>
  </outline>
</glyph>
<glyph name="emdash" format="1">
  <advance width="2206"/>
  <unicode hex="2014"/>
  <outline>
    <contour>
      <point x="60" y="469" type="line"/>
      <point x="2146" y="469" type="line"/>
      <point x="2146" y="659" type="line"/>
      <point x="60" y="659" type="line"/>
    </contour>
  </outline>
</glyph>
<glyph name="quotedblleft" format="1">
  <advance width="954"/>
  <unicode hex="201C"/>
  <outline>
    <contour>
      <point x="532" y="1029" type="line"/>
      <point x="799" y="1029" type="line"/>
      <point x="838" y="1539" type="line"/>
      <point x="651" y="1539" type="line"/>
    </contour>
    <contour>
      <point x="128" y="1029" type="line"/>
      <point x="395" y="1029" type="line"/>
      <point x="434" y="1539" type="line"/>
      <point x="247" y="1539" type="line"/>
    </contour>
  </outline>
</glyph>
<glyph name="quotedblbase" format="1">
  <advance width="904"/>
  <unicode hex="201E"/>
  <outline>
    <contour>
      <point x="488" y="-360" type="line"/>
      <point x="671" y="-360" type="line"/>
      <point x="791" y="147" type="line"/>
      <point x="528" y="147" type="line"/>
    </contour>
    <contour>
      <point x="106" y="-360" type="line"/>
      <point x="289" y="-360" type="line"/>
      <point x="407" y="147" type="line"/>
      <point x="147" y="147" type="line"/>
    </contour>
  </outline>
</glyph>
<glyph name="bullet" format="1">
  <advance width="949"/>
  <unicode hex="2022"/>
  <outline>
    <contour>
      <point x="462" y="366" type="curve" smooth="yes"/>
      <point x="655" y="366"/>
      <point x="810" y="511"/>
      <point x="810" y="712" type="curve" smooth="yes"/>
      <point x="810" y="913"/>
      <point x="661" y="1053"/>
      <point x="469" y="1053" type="curve" smooth="yes"/>
      <point x="276" y="1053"/>
      <point x="121" y="907"/>
      <point x="121" y="707" type="curve" smooth="yes"/>
      <point x="121" y="507"/>
      <point x="269" y="366"/>
    </contour>
  </outline>
</glyph>
<glyph name="perthousand" format="1">
  <advance width="2956"/>
  <unicode hex="2030"/>
  <outline>
    <component base="percent" xOffset="38"/>
    <contour>
      <point x="2470" y="-28" type="curve" smooth="yes"/>
      <point x="2712" y="-28"/>
      <point x="2859" y="151"/>
      <point x="2859" y="380" type="curve" smooth="yes"/>
      <point x="2859" y="611"/>
      <point x="2715" y="781"/>
      <point x="2470" y="781" type="curve" smooth="yes"/>
      <point x="2229" y="781"/>
      <point x="2082" y="607"/>
      <point x="2082" y="380" type="curve" smooth="yes"/>
      <point x="2082" y="151"/>
      <point x="2225" y="-28"/>
    </contour>
    <contour>
      <point x="2474" y="140" type="curve" smooth="yes"/>
      <point x="2347" y="140"/>
      <point x="2280" y="245"/>
      <point x="2280" y="382" type="curve" smooth="yes"/>
      <point x="2280" y="516"/>
      <point x="2347" y="620"/>
      <point x="2474" y="620" type="curve" smooth="yes"/>
      <point x="2598" y="620"/>
      <point x="2663" y="521"/>
      <point x="2663" y="382" type="curve" smooth="yes"/>
      <point x="2663" y="248"/>
      <point x="2599" y="140"/>
    </contour>
  </outline>
</glyph>
<glyph name="guilsinglleft" format="1">
  <advance width="833"/>
  <unicode hex="2039"/>
  <outline>
    <contour>
      <point x="450" y="165" type="line"/>
      <point x="640" y="165" type="line"/>
      <point x="377" y="583" type="line"/>
      <point x="646" y="1013" type="line"/>
      <point x="457" y="1013" type="line"/>
      <point x="175" y="584" type="line"/>
    </contour>
  </outline>
</glyph>
<glyph name="guilsinglright" format="1">
  <advance width="766"/>
  <unicode hex="203A"/>
  <outline>
    <contour>
      <point x="139" y="165" type="line"/>
      <point x="329" y="165" type="line"/>
      <point x="612" y="581" type="line"/>
      <point x="339" y="994" type="line"/>
      <point x="150" y="994" type="line"/>
      <point x="408" y="583" type="line"/>
    </contour>
  </outline>
</glyph>
<glyph name="fraction" format="1">
  <advance width="1138"/>
  <unicode hex="2044"/>
  <outline>
    <contour>
      <point x="70" y="0" type="line"/>
      <point x="267" y="0" type="line"/>
      <point x="1183" y="1541" type="line"/>
      <point x="994" y="1541" type="line"/>
    </contour>
  </outline>
</glyph>
<glyph name="uni2074" format="1">
  <advance width="692"/>
  <unicode hex="2074"/>
  <outline>
    <contour>
      <point x="178" y="914" type="line"/>
      <point x="366" y="1256" type="line"/>
      <point x="366" y="914" type="line"/>
    </contour>
    <contour>
      <point x="365" y="594" type="line"/>
      <point x="524" y="594" type="line"/>
      <point x="524" y="781" type="line"/>
      <point x="625" y="781" type="line"/>
      <point x="639" y="914" type="line"/>
      <point x="524" y="914" type="line"/>
      <point x="524" y="1468" type="line"/>
      <point x="356" y="1468" type="line"/>
      <point x="4" y="922" type="line"/>
      <point x="4" y="781" type="line"/>
      <point x="365" y="781" type="line"/>
    </contour>
  </outline>
</glyph>
<glyph name="trademark" format="1">
  <advance width="2095"/>
  <unicode hex="2122"/>
  <outline>
    <contour>
      <point x="356" y="521" type="line"/>
      <point x="545" y="521" type="line"/>
      <point x="545" y="1309" type="line"/>
      <point x="817" y="1309" type="line"/>
      <point x="817" y="1456" type="line"/>
      <point x="84" y="1456" type="line"/>
      <point x="84" y="1309" type="line"/>
      <point x="356" y="1309" type="line"/>
    </contour>
    <contour>
      <point x="926" y="521" type="line"/>
      <point x="1103" y="521" type="line"/>
      <point x="1118" y="1142" type="line"/>
      <point x="1376" y="609" type="line"/>
      <point x="1478" y="609" type="line"/>
      <point x="1737" y="1139" type="line"/>
      <point x="1752" y="521" type="line"/>
      <point x="1928" y="521" type="line"/>
      <point x="1909" y="1456" type="line"/>
      <point x="1718" y="1456" type="line"/>
      <point x="1428" y="853" type="line"/>
      <point x="1137" y="1456" type="line"/>
      <point x="945" y="1456" type="line"/>
    </contour>
  </outline>
</glyph>
<glyph name="estimated" format="1">
  <advance width="1180"/>
  <unicode hex="212E"/>
  <outline>
    <contour>
      <point x="937" y="591" type="curve"/>
      <point x="326" y="591" type="line"/>
      <point x="343" y="848"/>
      <point x="458" y="1019"/>
      <point x="627" y="1019" type="curve" smooth="yes"/>
      <point x="834" y="1019"/>
      <point x="937" y="822"/>
    </contour>
    <contour>
      <point x="78" y="531" type="curve" smooth="yes"/>
      <point x="78" y="217"/>
      <point x="264" y="-20"/>
      <point x="638" y="-20" type="curve" smooth="yes"/>
      <point x="842" y="-20"/>
      <point x="975" y="67"/>
      <point x="1073" y="185" type="curve"/>
      <point x="1023" y="235" type="line"/>
      <point x="926" y="131"/>
      <point x="817" y="53"/>
      <point x="638" y="53" type="curve" smooth="yes"/>
      <point x="413" y="53"/>
      <point x="327" y="240"/>
      <point x="326" y="511" type="curve"/>
      <point x="1081" y="511" type="line"/>
      <point x="1081" y="852"/>
      <point x="936" y="1079"/>
      <point x="621" y="1079" type="curve" smooth="yes"/>
      <point x="304" y="1079"/>
      <point x="78" y="846"/>
    </contour>
  </outline>
</glyph>
<glyph name="partialdiff" format="1">
  <advance width="1324"/>
  <unicode hex="2202"/>
  <outline>
    <contour>
      <point x="546" y="122" type="curve" smooth="yes"/>
      <point x="487" y="122"/>
      <point x="459" y="183"/>
      <point x="459" y="268" type="curve" smooth="yes"/>
      <point x="459" y="463"/>
      <point x="608" y="787"/>
      <point x="892" y="825" type="curve"/>
      <point x="870" y="542"/>
      <point x="758" y="122"/>
    </contour>
    <contour>
      <point x="532" y="-20" type="curve" smooth="yes"/>
      <point x="906" y="-20"/>
      <point x="1144" y="393"/>
      <point x="1144" y="924" type="curve" smooth="yes"/>
      <point x="1144" y="1313"/>
      <point x="897" y="1560"/>
      <point x="594" y="1560" type="curve" smooth="yes"/>
      <point x="488" y="1560"/>
      <point x="374" y="1529"/>
      <point x="262" y="1464" type="curve"/>
      <point x="316" y="1328" type="line"/>
      <point x="396" y="1373"/>
      <point x="476" y="1394"/>
      <point x="549" y="1394" type="curve" smooth="yes"/>
      <point x="748" y="1394"/>
      <point x="900" y="1238"/>
      <point x="900" y="980" type="curve" smooth="yes"/>
      <point x="900" y="955" type="line"/>
      <point x="444" y="934"/>
      <point x="190" y="583"/>
      <point x="190" y="308" type="curve" smooth="yes"/>
      <point x="190" y="128"/>
      <point x="299" y="-20"/>
    </contour>
  </outline>
</glyph>
<glyph name="product" format="1">
  <advance width="1574"/>
  <unicode hex="220F"/>
  <outline>
    <contour>
      <point x="205" y="1527" type="line"/>
      <point x="205" y="0" type="line"/>
      <point x="382" y="0" type="line"/>
      <point x="382" y="1367" type="line"/>
      <point x="1197" y="1367" type="line"/>
      <point x="1197" y="0" type="line"/>
      <point x="1375" y="0" type="line"/>
      <point x="1375" y="1527" type="line"/>
    </contour>
  </outline>
</glyph>
<glyph name="minus" format="1">
  <advance width="1203"/>
  <unicode hex="2212"/>
  <outline>
    <contour>
      <point x="96" y="666" type="line"/>
      <point x="96" y="476" type="line"/>
      <point x="1116" y="476" type="line"/>
      <point x="1116" y="666" type="line"/>
    </contour>
  </outline>
</glyph>
<glyph name="radical" format="1">
  <advance width="1313"/>
  <unicode hex="221A"/>
  <outline>
    <contour>
      <point x="1034" y="1613" type="line"/>
      <point x="990" y="1427"/>
      <point x="664" y="330"/>
      <point x="620" y="144" type="curve"/>
      <point x="534" y="416"/>
      <point x="438" y="678"/>
      <point x="346" y="945" type="curve"/>
      <point x="25" y="854" type="line"/>
      <point x="51" y="730" type="line"/>
      <point x="194" y="768" type="line"/>
      <point x="535" y="-166" type="line"/>
      <point x="787" y="-166" type="line"/>
      <point x="1281" y="1613" type="line"/>
    </contour>
  </outline>
</glyph>
<glyph name="approxequal" format="1">
  <advance width="1255"/>
  <unicode hex="2248"/>
  <outline>
    <contour>
      <point x="216" y="346" type="line"/>
      <point x="244" y="447"/>
      <point x="297" y="509"/>
      <point x="383" y="509" type="curve" smooth="yes"/>
      <point x="440" y="509"/>
      <point x="496" y="479"/>
      <point x="550" y="452" type="curve" smooth="yes"/>
      <point x="680" y="382"/>
      <point x="762" y="348"/>
      <point x="858" y="348" type="curve" smooth="yes"/>
      <point x="1034" y="348"/>
      <point x="1102" y="455"/>
      <point x="1144" y="612" type="curve"/>
      <point x="1028" y="687" type="line"/>
      <point x="985" y="573"/>
      <point x="919" y="529"/>
      <point x="853" y="529" type="curve" smooth="yes"/>
      <point x="796" y="529"/>
      <point x="729" y="562"/>
      <point x="650" y="603" type="curve" smooth="yes"/>
      <point x="542" y="661"/>
      <point x="478" y="691"/>
      <point x="385" y="691" type="curve" smooth="yes"/>
      <point x="221" y="691"/>
      <point x="125" y="584"/>
      <point x="90" y="424" type="curve"/>
    </contour>
    <contour>
      <point x="216" y="746" type="line"/>
      <point x="244" y="845"/>
      <point x="297" y="909"/>
      <point x="381" y="909" type="curve" smooth="yes"/>
      <point x="439" y="909"/>
      <point x="495" y="878"/>
      <point x="550" y="851" type="curve" smooth="yes"/>
      <point x="680" y="781"/>
      <point x="762" y="747"/>
      <point x="858" y="747" type="curve" smooth="yes"/>
      <point x="1034" y="747"/>
      <point x="1102" y="854"/>
      <point x="1144" y="1011" type="curve"/>
      <point x="1028" y="1086" type="line"/>
      <point x="985" y="972"/>
      <point x="919" y="929"/>
      <point x="853" y="929" type="curve" smooth="yes"/>
      <point x="796" y="929"/>
      <point x="729" y="961"/>
      <point x="650" y="1002" type="curve" smooth="yes"/>
      <point x="542" y="1060"/>
      <point x="478" y="1090"/>
      <point x="385" y="1090" type="curve" smooth="yes"/>
      <point x="221" y="1090"/>
      <point x="125" y="983"/>
      <point x="90" y="824" type="curve"/>
    </contour>
  </outline>
</glyph>
<glyph name="notequal" format="1">
  <advance width="1159"/>
  <unicode hex="2260"/>
  <outline>
    <contour>
      <point x="367" y="43" type="line"/>
      <point x="503" y="325" type="line"/>
      <point x="1059" y="325" type="line"/>
      <point x="1047" y="498" type="line"/>
      <point x="582" y="498" type="line"/>
      <point x="701" y="735" type="line"/>
      <point x="1059" y="735" type="line"/>
      <point x="1045" y="918" type="line"/>
      <point x="780" y="918" type="line"/>
      <point x="894" y="1162" type="line"/>
      <point x="732" y="1185" type="line"/>
      <point x="598" y="918" type="line"/>
      <point x="58" y="918" type="line"/>
      <point x="71" y="736" type="line"/>
      <point x="521" y="736" type="line"/>
      <point x="404" y="499" type="line"/>
      <point x="61" y="499" type="line"/>
      <point x="71" y="325" type="line"/>
      <point x="324" y="325" type="line"/>
      <point x="206" y="69" type="line"/>
    </contour>
  </outline>
</glyph>
<glyph name="lozenge" format="1">
  <advance width="1203"/>
  <unicode hex="25CA"/>
  <outline>
    <contour>
      <point x="925" y="746" type="curve"/>
      <point x="775" y="464"/>
      <point x="743" y="434"/>
      <point x="593" y="151" type="curve"/>
      <point x="444" y="431"/>
      <point x="424" y="465"/>
      <point x="279" y="746" type="curve"/>
      <point x="428" y="1028"/>
      <point x="454" y="1060"/>
      <point x="605" y="1340" type="curve"/>
      <point x="749" y="1057"/>
      <point x="779" y="1026"/>
    </contour>
    <contour>
      <point x="540" y="1539" type="line"/>
      <point x="103" y="744" type="line"/>
      <point x="533" y="-46" type="line"/>
      <point x="659" y="-46" type="line"/>
      <point x="1101" y="745" type="line"/>
      <point x="669" y="1539" type="line"/>
    </contour>
  </outline>
</glyph>
<glyph name="caron.alt" format="1">
  <advance width="649"/>
  <outline>
    <contour>
      <point x="79" y="1082" type="move" name="_caron.alt"/>
    </contour>
    <contour>
      <point x="377" y="1131" type="line"/>
      <point x="556" y="1131" type="line"/>
      <point x="627" y="1554" type="line"/>
      <point x="391" y="1554" type="line"/>
    </contour>
  </outline>
</glyph>
<glyph name="middot" format="1">
  <advance width="633"/>
  <outline>
    <component base="period" xOffset="-37" yOffset="509"/>
    <contour>
      <point x="307" y="661" type="move" name="_mid"/>
    </contour>
  </outline>
</glyph>
